<?xml version="1.0" encoding="iso-8859-1"?>
<!-- Generator: Adobe Illustrator 19.0.0, SVG Export Plug-In . SVG Version: 6.00 Build 0)  -->
<svg xmlns="http://www.w3.org/2000/svg" xmlns:xlink="http://www.w3.org/1999/xlink" version="1.1" id="Capa_1" x="0px" y="0px" viewBox="0 0 480 480" style="enable-background:new 0 0 480 480;" xml:space="preserve" width="512px" height="512px">
<g>
	<g>
		<path d="M448,176H168c0-35.346-28.654-64-64-64c-35.346,0-64,28.654-64,64h-8c-17.673,0-32,14.327-32,32v240    c0,17.673,14.327,32,32,32h416c17.673,0,32-14.327,32-32V208C480,190.327,465.673,176,448,176z M104,128c26.51,0,48,21.49,48,48    c0,26.51-21.49,48-48,48c-26.51,0-48-21.49-48-48C56.026,149.501,77.501,128.026,104,128z M56,224h5.808    c24.083,21.333,60.301,21.333,84.384,0H232v40h16v-40h152v208H56V224z M464,448c0,8.837-7.163,16-16,16H32    c-8.837,0-16-7.163-16-16V208c0-8.837,7.163-16,16-16h10.104c1.447,5.606,3.651,10.989,6.552,16H48c-4.418,0-8,3.582-8,8v224    c0,4.418,3.582,8,8,8h360c4.418,0,8-3.582,8-8V216c0-4.418-3.582-8-8-8H159.344c2.901-5.011,5.105-10.394,6.552-16H448    c8.837,0,16,7.163,16,16V448z" fill="#009fff"/>
	</g>
</g>
<g>
	<g>
		<path d="M308.216,384c2.487-7.758,3.763-15.853,3.784-24c0.172-44.182-35.506-80.139-79.688-80.31s-80.139,35.506-80.31,79.688    c-0.032,8.355,1.244,16.663,3.783,24.622H136v16h200v-16H308.216z M248,384h-24v-16h24c4.418,0,8,3.582,8,8S252.418,384,248,384z     M248,352h-24v-16h24c4.418,0,8,3.582,8,8S252.418,352,248,352z M291.248,384h-20.72c3.078-8.263,1.219-17.556-4.8-24    c8.874-9.679,8.221-24.719-1.459-33.593c-2.391-2.192-5.205-3.872-8.269-4.935V312h-16v8h-16v-8h-16v8h-8v16h8v48h-35.248    c-3.129-7.615-4.743-15.767-4.752-24c0-35.346,28.654-64,64-64c35.346,0,64,28.654,64,64    C295.991,368.233,294.377,376.385,291.248,384z" fill="#009fff"/>
	</g>
</g>
<g>
	<g>
		<path d="M336,32c-35.33,0.04-63.96,28.67-64,64c0,35.346,28.654,64,64,64c35.346,0,64-28.654,64-64C400,60.654,371.346,32,336,32z     M336,144c-26.51,0-48-21.49-48-48s21.49-48,48-48c26.499,0.026,47.974,21.501,48,48C384,122.51,362.51,144,336,144z" fill="#009fff"/>
	</g>
</g>
<g>
	<g>
		<rect x="256" width="16" height="56" fill="#009fff"/>
	</g>
</g>
<g>
	<g>
		<rect x="376" width="16" height="24" fill="#009fff"/>
	</g>
</g>
<g>
	<g>
		<rect x="216" y="56" width="16" height="72" fill="#009fff"/>
	</g>
</g>
<g>
	<g>
		<rect x="72" width="16" height="24" fill="#009fff"/>
	</g>
</g>
<g>
	<g>
		<path d="M360,84c0-11.046-8.954-20-20-20h-20c-4.418,0-8,3.582-8,8v48c0,4.418,3.582,8,8,8h20c11.046,0,20-8.954,20-20    c-0.013-4.342-1.455-8.559-4.104-12C358.545,92.559,359.987,88.342,360,84z M340,112h-12v-8h12c2.209,0,4,1.791,4,4    C344,110.209,342.209,112,340,112z M340,88h-12v-8h12c2.209,0,4,1.791,4,4C344,86.209,342.209,88,340,88z" fill="#009fff"/>
	</g>
</g>
<g>
	<g>
		<rect x="256" y="136" width="16" height="16" fill="#009fff"/>
	</g>
</g>
<g>
	<g>
		<rect x="128" y="240" width="16" height="16" fill="#009fff"/>
	</g>
</g>
<g>
	<g>
		<rect x="128" y="272" width="16" height="48" fill="#009fff"/>
	</g>
</g>
<g>
	<g>
		<path d="M184,0c0,13.255-10.745,24-24,24s-24-10.745-24-24h-16c0,22.091,17.909,40,40,40s40-17.909,40-40H184z" fill="#009fff"/>
	</g>
</g>
<g>
	<g>
		<rect x="96" y="32" width="16" height="16" fill="#009fff"/>
	</g>
</g>
<g>
	<g>
		<rect x="96" y="64" width="16" height="32" fill="#009fff"/>
	</g>
</g>
<g>
	<g>
		<rect x="216" y="24" width="16" height="16" fill="#009fff"/>
	</g>
</g>
<g>
	<g>
		<path d="M336,240c-17.673,0-32,14.327-32,32c0,17.673,14.327,32,32,32c17.673,0,32-14.327,32-32C368,254.327,353.673,240,336,240z     M336,288c-8.837,0-16-7.163-16-16s7.163-16,16-16s16,7.163,16,16S344.837,288,336,288z" fill="#009fff"/>
	</g>
</g>
<g>
	<g>
		<path d="M128,164c0-11.046-8.954-20-20-20H88c-4.418,0-8,3.582-8,8v48c0,4.418,3.582,8,8,8h20c11.046,0,20-8.954,20-20    c-0.013-4.342-1.455-8.559-4.104-12C126.545,172.559,127.987,168.342,128,164z M108,192H96v-8h12c2.209,0,4,1.791,4,4    C112,190.209,110.209,192,108,192z M108,168H96v-8h12c2.209,0,4,1.791,4,4C112,166.209,110.209,168,108,168z" fill="#009fff"/>
	</g>
</g>
<g>
</g>
<g>
</g>
<g>
</g>
<g>
</g>
<g>
</g>
<g>
</g>
<g>
</g>
<g>
</g>
<g>
</g>
<g>
</g>
<g>
</g>
<g>
</g>
<g>
</g>
<g>
</g>
<g>
</g>
</svg>
