<svg xmlns="http://www.w3.org/2000/svg" xmlns:xlink="http://www.w3.org/1999/xlink" width="1467" height="2665" viewBox="0 0 1467 2665">
  <metadata><?xpacket begin="﻿" id="W5M0MpCehiHzreSzNTczkc9d"?>
<x:xmpmeta xmlns:x="adobe:ns:meta/" x:xmptk="Adobe XMP Core 5.6-c142 79.160924, 2017/07/13-01:06:39        ">
   <rdf:RDF xmlns:rdf="http://www.w3.org/1999/02/22-rdf-syntax-ns#">
      <rdf:Description rdf:about=""/>
   </rdf:RDF>
</x:xmpmeta>
                                                                                                    
                                                                                                    
                                                                                                    
                                                                                                    
                                                                                                    
                                                                                                    
                                                                                                    
                                                                                                    
                                                                                                    
                                                                                                    
                                                                                                    
                                                                                                    
                                                                                                    
                                                                                                    
                                                                                                    
                                                                                                    
                                                                                                    
                                                                                                    
                                                                                                    
                                                                                                    
                           
<?xpacket end="w"?></metadata>
<defs>
    <style>
      .cls-1 {
        fill-rule: evenodd;
        filter: url(#filter);
      }
    </style>
    <filter id="filter" x="118" y="52.813" width="1287" height="2504.938" filterUnits="userSpaceOnUse">
      <feFlood result="flood" flood-color="#fff"/>
      <feComposite result="composite" operator="in" in2="SourceGraphic"/>
      <feBlend result="blend" in2="SourceGraphic"/>
    </filter>
  </defs>
  <path class="cls-1" d="M960.16,2557.75H417.135V1434.6H117.99V918.844H417.127V629.2c0-265.9,167.586-576.4,640.1-576.4,166.58,0,288.87,15.474,293.97,16.154l50.15,6.518-12.08,482.649-55.24-.51c-0.12,0-124.25-1.134-259.67-1.134-100.78,0-114.151,24.657-114.151,122.83V918.958H1404.99l-24.65,515.752H960.267V2557.75H960.16ZM529.35,2446.26H847.806V1323.27H1273.04l14.04-292.93H847.806V679.249c0-115.915,26.888-234.381,226.424-234.381,80.18,0,156.37.4,205.38,0.793l6.8-271.394c-49.58-4.365-132.05-9.976-229.29-9.976-389.141,0-527.827,240.049-527.827,464.907V1030.34H230.164v292.93H529.3V2446.26h0.049Z"/>
</svg>
