<svg xmlns="http://www.w3.org/2000/svg" xmlns:xlink="http://www.w3.org/1999/xlink" width="534" height="603" viewBox="0 0 534 603">
  <metadata><?xpacket begin="﻿" id="W5M0MpCehiHzreSzNTczkc9d"?>
<x:xmpmeta xmlns:x="adobe:ns:meta/" x:xmptk="Adobe XMP Core 5.6-c142 79.160924, 2017/07/13-01:06:39        ">
   <rdf:RDF xmlns:rdf="http://www.w3.org/1999/02/22-rdf-syntax-ns#">
      <rdf:Description rdf:about=""/>
   </rdf:RDF>
</x:xmpmeta>
                                                                                                    
                                                                                                    
                                                                                                    
                                                                                                    
                                                                                                    
                                                                                                    
                                                                                                    
                                                                                                    
                                                                                                    
                                                                                                    
                                                                                                    
                                                                                                    
                                                                                                    
                                                                                                    
                                                                                                    
                                                                                                    
                                                                                                    
                                                                                                    
                                                                                                    
                                                                                                    
                           
<?xpacket end="w"?></metadata>
<defs>
    <style>
      .cls-1 {
        fill-rule: evenodd;
        filter: url(#filter);
      }
    </style>
    <filter id="filter" x="24.969" y="28" width="484.062" height="547" filterUnits="userSpaceOnUse">
      <feFlood result="flood" flood-color="#fff"/>
      <feComposite result="composite" operator="in" in2="SourceGraphic"/>
      <feBlend result="blend" in2="SourceGraphic"/>
    </filter>
  </defs>
  <path class="cls-1" d="M480.417,32.9a21.06,21.06,0,0,0-29.658,2.69l-420.9,504.89A21.054,21.054,0,0,0,62.2,567.431l420.9-504.911A21.038,21.038,0,0,0,480.417,32.9ZM130.21,238.39A105.188,105.188,0,1,0,24.983,133.2,105.33,105.33,0,0,0,130.21,238.39Zm0-168.3A63.113,63.113,0,1,1,67.073,133.2,63.193,63.193,0,0,1,130.21,70.089ZM403.8,364.614A105.188,105.188,0,1,0,509.023,469.8,105.332,105.332,0,0,0,403.8,364.614Zm0,168.3A63.113,63.113,0,1,1,466.933,469.8,63.194,63.194,0,0,1,403.8,532.914Z"/>
</svg>
