<svg xmlns="http://www.w3.org/2000/svg" xmlns:xlink="http://www.w3.org/1999/xlink" width="716" height="700" viewBox="0 0 716 700">
  <metadata><?xpacket begin="﻿" id="W5M0MpCehiHzreSzNTczkc9d"?>
<x:xmpmeta xmlns:x="adobe:ns:meta/" x:xmptk="Adobe XMP Core 5.6-c142 79.160924, 2017/07/13-01:06:39        ">
   <rdf:RDF xmlns:rdf="http://www.w3.org/1999/02/22-rdf-syntax-ns#">
      <rdf:Description rdf:about=""/>
   </rdf:RDF>
</x:xmpmeta>
                                                                                                    
                                                                                                    
                                                                                                    
                                                                                                    
                                                                                                    
                                                                                                    
                                                                                                    
                                                                                                    
                                                                                                    
                                                                                                    
                                                                                                    
                                                                                                    
                                                                                                    
                                                                                                    
                                                                                                    
                                                                                                    
                                                                                                    
                                                                                                    
                                                                                                    
                                                                                                    
                           
<?xpacket end="w"?></metadata>
<defs>
    <style>
      .cls-1 {
        fill-rule: evenodd;
        filter: url(#filter);
      }
    </style>
    <filter id="filter" x="50" y="48" width="617" height="604" filterUnits="userSpaceOnUse">
      <feFlood result="flood" flood-color="#fff"/>
      <feComposite result="composite" operator="in" in2="SourceGraphic"/>
      <feBlend result="blend" in2="SourceGraphic"/>
    </filter>
  </defs>
  <path id="Forma_1" data-name="Forma 1" class="cls-1" d="M638.234,48H78.766A28.767,28.767,0,0,0,50,76.768v85.026a28.768,28.768,0,0,0,28.766,28.768H164.3V305.633c-15.086,17.261-78.5,92.186-86.17,141.794a12.791,12.791,0,0,0,0,1.918V639.214A12.786,12.786,0,0,0,90.911,652H245.865a12.781,12.781,0,0,0,10.483-5.5l65.459-94.231a12.8,12.8,0,0,0,1.79-3.964c0-2.046,6.776-24.8,14.319-56h202A12.785,12.785,0,0,0,552.7,479.52V190.562h85.531A28.768,28.768,0,0,0,667,161.794V76.768A28.767,28.767,0,0,0,638.234,48ZM338.555,356.393a1602.9,1602.9,0,0,1-38.994,182.964L239.089,626.3H103.568V450.88c4.987-29.152,36.182-73.9,60.729-104.716V479.52a12.785,12.785,0,0,0,12.785,12.785h46.153a12.752,12.752,0,0,0,4.6-.895l1.406-.767a12.776,12.776,0,0,0,2.557-1.662l1.151-1.278a12.847,12.847,0,0,0,1.534-2.3l0.767-1.662v-0.895C248.038,435.537,275.909,353.836,297,335.68c14.32-12.786,22.63-14.192,26.21-14.192a8.434,8.434,0,0,1,6.9,3.324A50.115,50.115,0,0,1,338.555,356.393ZM527.133,466.734H344.053c7.927-34.649,15.981-74.541,19.944-107.273a75.309,75.309,0,0,0-14.446-51.143,34.01,34.01,0,0,0-25.57-11.89,68.523,68.523,0,0,0-42.958,20.329c-29.661,25.572-58.043,118.78-67.121,150.488H189.867v-334.6H527.133V466.734Zm114.3-305.068a3.2,3.2,0,0,1-3.2,3.2H552.7v-32.22h23.141a12.786,12.786,0,0,0,0-25.571H141.156a12.786,12.786,0,0,0,0,25.571h23.269V165.5H78.766a3.2,3.2,0,0,1-3.2-3.2V76.768a3.2,3.2,0,0,1,3.2-3.2H638.234a3.2,3.2,0,0,1,3.2,3.2v84.9Z"/>
</svg>
