<svg xmlns="http://www.w3.org/2000/svg" xmlns:xlink="http://www.w3.org/1999/xlink" width="742" height="809" viewBox="0 0 742 809">
  <metadata><?xpacket begin="﻿" id="W5M0MpCehiHzreSzNTczkc9d"?>
<x:xmpmeta xmlns:x="adobe:ns:meta/" x:xmptk="Adobe XMP Core 5.6-c142 79.160924, 2017/07/13-01:06:39        ">
   <rdf:RDF xmlns:rdf="http://www.w3.org/1999/02/22-rdf-syntax-ns#">
      <rdf:Description rdf:about=""/>
   </rdf:RDF>
</x:xmpmeta>
                                                                                                    
                                                                                                    
                                                                                                    
                                                                                                    
                                                                                                    
                                                                                                    
                                                                                                    
                                                                                                    
                                                                                                    
                                                                                                    
                                                                                                    
                                                                                                    
                                                                                                    
                                                                                                    
                                                                                                    
                                                                                                    
                                                                                                    
                                                                                                    
                                                                                                    
                                                                                                    
                           
<?xpacket end="w"?></metadata>
<defs>
    <style>
      .cls-1 {
        fill-rule: evenodd;
        filter: url(#filter);
      }
    </style>
    <filter id="filter" x="8" y="72" width="726" height="665" filterUnits="userSpaceOnUse">
      <feFlood result="flood" flood-color="#fff"/>
      <feComposite result="composite" operator="in" in2="SourceGraphic"/>
      <feBlend result="blend" in2="SourceGraphic"/>
    </filter>
  </defs>
  <path id="Forma_1" data-name="Forma 1" class="cls-1" d="M730.975,168.727c-3.024-3.022-6.05-6.046-12.1-6.046H144.125L129,84.091C129,78.045,119.925,72,113.874,72H23.124C14.051,72,8,78.045,8,87.113s6.051,15.114,15.125,15.114h78.651L174.376,471c9.075,48.363,54.45,84.636,102.849,84.636H625.1c9.075,0,15.125-6.046,15.125-15.114s-6.05-15.114-15.125-15.114H280.25c-24.2,0-48.4-12.091-60.5-33.251L661.4,431.705c6.05,0,12.1-6.046,12.1-12.09L734,177.8S734,171.749,730.975,168.727ZM646.275,404.5L204.624,461.932l-54.45-272.046H697.7ZM265.124,585.865c-42.349,0-75.624,33.25-75.624,75.568S222.775,737,265.124,737s75.625-33.251,75.625-75.568S307.475,585.865,265.124,585.865Zm0,120.909c-24.2,0-45.375-21.16-45.375-45.341s21.175-45.341,45.375-45.341,45.375,21.16,45.375,45.341S289.325,706.774,265.124,706.774Zm302.5-120.909c-42.35,0-75.624,33.25-75.624,75.568S525.276,737,567.625,737s75.625-33.251,75.625-75.568S609.975,585.865,567.625,585.865Zm0,120.909c-24.2,0-45.375-21.16-45.375-45.341s21.175-45.341,45.375-45.341S613,637.252,613,661.433,591.824,706.774,567.625,706.774Z"/>
</svg>
