<svg xmlns="http://www.w3.org/2000/svg" xmlns:xlink="http://www.w3.org/1999/xlink" width="1497" height="1423" viewBox="0 0 1497 1423">
  <metadata><?xpacket begin="﻿" id="W5M0MpCehiHzreSzNTczkc9d"?>
<x:xmpmeta xmlns:x="adobe:ns:meta/" x:xmptk="Adobe XMP Core 5.6-c142 79.160924, 2017/07/13-01:06:39        ">
   <rdf:RDF xmlns:rdf="http://www.w3.org/1999/02/22-rdf-syntax-ns#">
      <rdf:Description rdf:about=""/>
   </rdf:RDF>
</x:xmpmeta>
                                                                                                    
                                                                                                    
                                                                                                    
                                                                                                    
                                                                                                    
                                                                                                    
                                                                                                    
                                                                                                    
                                                                                                    
                                                                                                    
                                                                                                    
                                                                                                    
                                                                                                    
                                                                                                    
                                                                                                    
                                                                                                    
                                                                                                    
                                                                                                    
                                                                                                    
                                                                                                    
                           
<?xpacket end="w"?></metadata>
<defs>
    <style>
      .cls-1 {
        fill-rule: evenodd;
        filter: url(#filter);
      }
    </style>
    <filter id="filter" x="244" y="206.938" width="1010" height="1009.972" filterUnits="userSpaceOnUse">
      <feFlood result="flood" flood-color="#fff"/>
      <feComposite result="composite" operator="in" in2="SourceGraphic"/>
      <feBlend result="blend" in2="SourceGraphic"/>
    </filter>
  </defs>
  <path id="FIAT_ICON" data-name="FIAT ICON" class="cls-1" d="M1232.56,643.014h-25.77V469.062c0-40.794-32.15-72.931-70.9-72.931h-19.38V279.865c0-40.794-30.09-72.931-66.57-72.931h-4.33L310.578,395.9c-0.211,0-.619.235-0.83,0.235C273.475,399,244,430.1,244,469.062V1143.93c0,40.79,32.154,72.98,70.9,72.98H1135.89c40.81,0,72.96-32.19,72.96-72.98V965.462h23.71c12.99,0,21.44-8.705,21.44-21.456v-279.3A21.625,21.625,0,0,0,1232.56,643.014Zm-178.5-395.286c10.72,2.024,21.43,15.01,21.43,32.137V395.9H482.48Zm111.92,896.2c0,17.08-12.98,32.14-30.09,32.14H314.9c-17.107,0-30.093-15.06-30.093-32.14V469.062c0-17.127,12.986-32.137,30.093-32.137H1133.62c17.11,0,30.09,15.01,30.09,32.137V643.014H951c-90.279,0-161.187,70.907-161.187,161.2A160.967,160.967,0,0,0,951,965.462H1165.98V1143.93Zm44.94-219.309H951c-64.517,0-118.108-53.828-118.108-118.1,0-64.321,53.8-118.148,118.108-118.148H1210.92V924.621ZM927.293,808.543A21.415,21.415,0,0,0,948.731,830H968.1a21.433,21.433,0,1,0,0-42.865H948.935C935.949,787.134,927.293,795.792,927.293,808.543Z"/>
</svg>
