<svg xmlns="http://www.w3.org/2000/svg" xmlns:xlink="http://www.w3.org/1999/xlink" width="727" height="1001" viewBox="0 0 727 1001">
  <metadata><?xpacket begin="﻿" id="W5M0MpCehiHzreSzNTczkc9d"?>
<x:xmpmeta xmlns:x="adobe:ns:meta/" x:xmptk="Adobe XMP Core 5.6-c142 79.160924, 2017/07/13-01:06:39        ">
   <rdf:RDF xmlns:rdf="http://www.w3.org/1999/02/22-rdf-syntax-ns#">
      <rdf:Description rdf:about=""/>
   </rdf:RDF>
</x:xmpmeta>
                                                                                                    
                                                                                                    
                                                                                                    
                                                                                                    
                                                                                                    
                                                                                                    
                                                                                                    
                                                                                                    
                                                                                                    
                                                                                                    
                                                                                                    
                                                                                                    
                                                                                                    
                                                                                                    
                                                                                                    
                                                                                                    
                                                                                                    
                                                                                                    
                                                                                                    
                                                                                                    
                           
<?xpacket end="w"?></metadata>
<defs>
    <style>
      .cls-1 {
        fill-rule: evenodd;
        filter: url(#filter);
      }
    </style>
    <filter id="filter" x="48" y="66" width="631" height="869" filterUnits="userSpaceOnUse">
      <feFlood result="flood" flood-color="#fff"/>
      <feComposite result="composite" operator="in" in2="SourceGraphic"/>
      <feBlend result="blend" in2="SourceGraphic"/>
    </filter>
  </defs>
  <path id="Forma_1" data-name="Forma 1" class="cls-1" d="M363.5,66C206.725,66,48,104.919,48,178.846v140.39c0,73.927,158.726,112.846,315.5,112.846S679,393.341,679,319.236V178.846C679,104.919,520.275,66,363.5,66Zm0,36.963c169.721,0,278.613,44.428,278.613,75.882S533.221,254.728,363.5,254.728,84.887,210.3,84.887,178.846,193.778,102.964,363.5,102.964Zm0,292.154c-169.722,0-278.613-44.427-278.613-75.882V234.647c56.042,37.5,167.771,56.867,278.613,56.867s222.571-19.371,278.613-56.867v84.589C642.113,350.691,533.221,395.118,363.5,395.118Zm0,110.891c-169.722,0-278.613-44.428-278.613-75.882H48V570.7C48,644.622,206.725,683.54,363.5,683.54S679,644.8,679,570.7V430.127H642.113C642.113,461.759,533.221,506.009,363.5,506.009ZM642.113,570.7c0,31.454-108.892,75.882-278.613,75.882S84.887,602.149,84.887,570.7V485.572c110.665,75.882,446.561,75.882,557.226,0V570.7ZM363.5,757.467c-169.722,0-278.613-44.427-278.613-75.882H48V822.153C48,896.08,206.725,935,363.5,935S679,896.258,679,822.153V681.763H642.113C642.113,713.04,533.221,757.467,363.5,757.467Zm278.613,64.686c0,31.455-108.892,75.882-278.613,75.882S84.887,853.608,84.887,822.153V737.03c110.665,75.882,446.561,75.882,557.226,0v85.123Z"/>
</svg>
