<svg xmlns="http://www.w3.org/2000/svg" xmlns:xlink="http://www.w3.org/1999/xlink" width="1532" height="1271" viewBox="0 0 1532 1271">
  <metadata><?xpacket begin="﻿" id="W5M0MpCehiHzreSzNTczkc9d"?>
<x:xmpmeta xmlns:x="adobe:ns:meta/" x:xmptk="Adobe XMP Core 5.6-c142 79.160924, 2017/07/13-01:06:39        ">
   <rdf:RDF xmlns:rdf="http://www.w3.org/1999/02/22-rdf-syntax-ns#">
      <rdf:Description rdf:about=""/>
   </rdf:RDF>
</x:xmpmeta>
                                                                                                    
                                                                                                    
                                                                                                    
                                                                                                    
                                                                                                    
                                                                                                    
                                                                                                    
                                                                                                    
                                                                                                    
                                                                                                    
                                                                                                    
                                                                                                    
                                                                                                    
                                                                                                    
                                                                                                    
                                                                                                    
                                                                                                    
                                                                                                    
                                                                                                    
                                                                                                    
                           
<?xpacket end="w"?></metadata>
<defs>
    <style>
      .cls-1 {
        fill-rule: evenodd;
        filter: url(#filter);
      }
    </style>
    <filter id="filter" x="127" y="-0.156" width="1271" height="1270.936" filterUnits="userSpaceOnUse">
      <feFlood result="flood" flood-color="#fff"/>
      <feComposite result="composite" operator="in" in2="SourceGraphic"/>
      <feBlend result="blend" in2="SourceGraphic"/>
    </filter>
  </defs>
  <path id="Forma_1" data-name="Forma 1" class="cls-1" d="M1204.58-.152H320.4c-106.654,0-193.411,86.776-193.411,193.391v884.2c0,106.62,86.787,193.35,193.411,193.35v-2.43c22.576,2.43,63.606,2.43,138.152,2.43H1204.58c106.65,0,193.41-86.73,193.41-193.35v-884.2C1397.99,86.625,1311.2-.152,1204.58-0.152ZM1342.73,1077.44c0,76.13-61.98,138.16-138.15,138.16H320.4c-76.175,0-138.151-62.03-138.151-138.16v-884.2c0-76.165,61.976-138.154,138.151-138.154H1204.58c76.17,0,138.15,61.989,138.15,138.154v884.2ZM762.488,220.921c-228.527,0-414.454,185.883-414.454,414.421S533.961,1049.81,762.488,1049.81,1176.95,863.88,1176.95,635.342,991.021,220.921,762.488,220.921Zm0,773.606c-198.054,0-359.194-161.138-359.194-359.185s161.14-359.227,359.194-359.227,359.2,161.18,359.2,359.227S960.548,994.527,762.488,994.527Zm-1.3-609.155c-137.818,0-249.97,112.151-249.97,249.97s112.152,249.97,249.97,249.97,249.979-112.151,249.979-249.97S899.015,385.372,761.191,385.372Zm0,444.661c-107.37,0-194.709-87.363-194.709-194.691,0-107.37,87.339-194.733,194.709-194.733s194.715,87.363,194.715,194.733C955.906,742.67,868.567,830.033,761.191,830.033ZM1176.95,165.6a55.258,55.258,0,1,1-55.26,55.321A55.275,55.275,0,0,1,1176.95,165.6Z"/>
</svg>
