<svg xmlns="http://www.w3.org/2000/svg" xmlns:xlink="http://www.w3.org/1999/xlink" width="1847" height="1901" viewBox="0 0 1847 1901">
  <metadata><?xpacket begin="﻿" id="W5M0MpCehiHzreSzNTczkc9d"?>
<x:xmpmeta xmlns:x="adobe:ns:meta/" x:xmptk="Adobe XMP Core 5.6-c142 79.160924, 2017/07/13-01:06:39        ">
   <rdf:RDF xmlns:rdf="http://www.w3.org/1999/02/22-rdf-syntax-ns#">
      <rdf:Description rdf:about=""/>
   </rdf:RDF>
</x:xmpmeta>
                                                                                                    
                                                                                                    
                                                                                                    
                                                                                                    
                                                                                                    
                                                                                                    
                                                                                                    
                                                                                                    
                                                                                                    
                                                                                                    
                                                                                                    
                                                                                                    
                                                                                                    
                                                                                                    
                                                                                                    
                                                                                                    
                                                                                                    
                                                                                                    
                                                                                                    
                                                                                                    
                           
<?xpacket end="w"?></metadata>
<defs>
    <style>
      .cls-1 {
        fill-rule: evenodd;
        filter: url(#filter);
      }
    </style>
    <filter id="filter" x="64" y="125.75" width="1660" height="1660.03" filterUnits="userSpaceOnUse">
      <feFlood result="flood" flood-color="#fff"/>
      <feComposite result="composite" operator="in" in2="SourceGraphic"/>
      <feBlend result="blend" in2="SourceGraphic"/>
    </filter>
  </defs>
  <path class="cls-1" d="M288.088,125.74c-60.867,0-116.2,22.56-157.7,64.734-44.264,45.067-66.4,101.335-66.4,160.39,0,61.894,24.9,118.162,66.4,160.441,41.5,42.122,99.6,67.469,154.933,64.682h5.532c55.335,0,107.9-22.56,149.4-64.682,41.5-42.279,66.4-98.547,66.4-160.441,2.766-59.055-22.136-115.323-63.633-157.55C401.524,148.3,346.189,125.74,288.088,125.74ZM401.524,471.865c-30.433,30.921-71.938,50.641-116.2,47.854-41.5,0-85.768-16.933-116.2-47.854-33.2-30.973-49.795-75.987-49.795-121,0-44.962,16.6-87.189,49.8-120.95,30.434-30.973,71.939-47.853,118.968-47.853a160,160,0,0,1,113.436,47.853c33.2,33.761,49.8,75.988,49.8,120.95C451.32,395.878,434.724,440.892,401.524,471.865Zm-5.539,160.389h-224.1c-44.263,0-80.229,36.6-80.229,84.4V1701.39c0,45.02,38.732,84.4,82.995,84.4H395.985c44.271,0,83-39.38,83-81.61V716.656C478.987,671.642,440.256,632.254,395.985,632.254ZM423.652,1704.18c0,14.09-13.83,25.35-27.667,25.35H174.652c-13.83,0-27.667-14.04-27.667-28.14V716.656c0-14.093,11.071-28.186,24.9-28.186h224.1c13.837,0,27.667,14.093,27.667,28.186V1704.18Zm913-1100.059h-58.1c-107.9,0-210.26,47.8-276.66,123.788V688.47c0-28.134-27.669-56.268-55.336-56.268H669.886c-24.9,0-55.335,22.507-55.335,53.48V1735.15c0,30.98,30.434,50.59,55.335,50.59H974.221c24.9,0,55.339-19.61,55.339-50.59V1127.41c0-92.87,66.4-166.016,152.16-166.016,44.27,0,85.76,16.88,116.2,47.856,27.67,25.29,38.74,64.73,38.74,115.37v604.91c0,28.08,27.66,56.21,55.33,56.21h276.66c27.67,0,55.34-28.08,55.34-56.21V1003.62C1723.99,778.55,1555.22,604.121,1336.65,604.121Zm332,1122.619-2.76,2.79H1394.75l-2.77-604.91c0-67.52-16.59-118.16-52.56-154.812a216.068,216.068,0,0,0-154.93-64.682c-116.2,2.84-207.5,98.494-207.5,222.284v602.12H672.652V688.47h273.9l2.766,2.839V868.526l74.7-75.882,2.76-2.787c55.34-78.88,152.17-129.521,254.53-129.521h58.11c185.36,0,329.23,151.922,329.23,343.284v723.12Z"/>
</svg>
