<svg xmlns="http://www.w3.org/2000/svg" xmlns:xlink="http://www.w3.org/1999/xlink" width="1920" height="2048" viewBox="0 0 1920 2048">
  <metadata><?xpacket begin="﻿" id="W5M0MpCehiHzreSzNTczkc9d"?>
<x:xmpmeta xmlns:x="adobe:ns:meta/" x:xmptk="Adobe XMP Core 5.6-c142 79.160924, 2017/07/13-01:06:39        ">
   <rdf:RDF xmlns:rdf="http://www.w3.org/1999/02/22-rdf-syntax-ns#">
      <rdf:Description rdf:about=""/>
   </rdf:RDF>
</x:xmpmeta>
                                                                                                    
                                                                                                    
                                                                                                    
                                                                                                    
                                                                                                    
                                                                                                    
                                                                                                    
                                                                                                    
                                                                                                    
                                                                                                    
                                                                                                    
                                                                                                    
                                                                                                    
                                                                                                    
                                                                                                    
                                                                                                    
                                                                                                    
                                                                                                    
                                                                                                    
                                                                                                    
                           
<?xpacket end="w"?></metadata>
<defs>
    <style>
      .cls-1 {
        fill-rule: evenodd;
        filter: url(#filter);
      }
    </style>
    <filter id="filter" x="135" y="423.75" width="1652" height="1507.97" filterUnits="userSpaceOnUse">
      <feFlood result="flood" flood-color="#fff"/>
      <feComposite result="composite" operator="in" in2="SourceGraphic"/>
      <feBlend result="blend" in2="SourceGraphic"/>
    </filter>
  </defs>
  <path class="cls-1" d="M1786.92,717.056c-0.43-9.9-6.1-19.222-14.73-23.6L1258.4,426.731a26.189,26.189,0,0,0-34.4,9.611L876.831,991.06l-178.8-287.823a27.793,27.793,0,0,0-10.513-9.782l-513.8-266.724c-17.492-9.1-38.732,4.55-38.732,24.8V718.364c0,15.3,11.976,27.753,26.764,27.753s26.756-12.454,26.756-27.753V496.512L648.788,735.483V1859.02L188.51,1620.05V836.94c0-15.355-11.977-27.81-26.764-27.81s-26.756,12.455-26.756,27.81v800.29a28.061,28.061,0,0,0,14.788,24.9l513.8,266.67c17.517,9.16,38.732-4.55,38.732-24.74V1385.8l1045.953,543c17.51,9.16,38.73-4.55,38.73-24.74V718.364C1786.99,717.91,1786.95,717.455,1786.92,717.056ZM702.307,1323.64V812.656L1170.93,1566.99ZM1733.47,1859.02l-449.59-233.45,350.33-626.548c7.41-13.194,3.07-30.256-9.71-37.99a26.326,26.326,0,0,0-36.58,10.123l-342.69,612.9-336.6-541.81L1255.84,487.469l466.94,242.5-85.14,152.243c-7.42,13.251-3.07,30.255,9.71,37.99,12.77,7.677,29.15,3.185,36.58-10.066l49.54-88.605V1859.02Z"/>
</svg>
