<svg xmlns="http://www.w3.org/2000/svg" xmlns:xlink="http://www.w3.org/1999/xlink" width="1869" height="1550" viewBox="0 0 1869 1550">
  <metadata><?xpacket begin="﻿" id="W5M0MpCehiHzreSzNTczkc9d"?>
<x:xmpmeta xmlns:x="adobe:ns:meta/" x:xmptk="Adobe XMP Core 5.6-c142 79.160924, 2017/07/13-01:06:39        ">
   <rdf:RDF xmlns:rdf="http://www.w3.org/1999/02/22-rdf-syntax-ns#">
      <rdf:Description rdf:about=""/>
   </rdf:RDF>
</x:xmpmeta>
                                                                                                    
                                                                                                    
                                                                                                    
                                                                                                    
                                                                                                    
                                                                                                    
                                                                                                    
                                                                                                    
                                                                                                    
                                                                                                    
                                                                                                    
                                                                                                    
                                                                                                    
                                                                                                    
                                                                                                    
                                                                                                    
                                                                                                    
                                                                                                    
                                                                                                    
                                                                                                    
                           
<?xpacket end="w"?></metadata>
<defs>
    <style>
      .cls-1 {
        fill-rule: evenodd;
        filter: url(#filter);
      }
    </style>
    <filter id="filter" x="145" y="66.781" width="1588" height="1368.059" filterUnits="userSpaceOnUse">
      <feFlood result="flood" flood-color="#fff"/>
      <feComposite result="composite" operator="in" in2="SourceGraphic"/>
      <feBlend result="blend" in2="SourceGraphic"/>
    </filter>
  </defs>
  <path class="cls-1" d="M1732.99,680.863c0-107.084-91.55-194.19-204.07-194.19-56.49,0-110.62,22.491-149.13,61.667-123.11-76.1-277.68-117.658-440.8-117.658h-1.679c0-.563-0.038-1.17-0.038-1.733,0-155.318,123.856-281.6,276.106-281.6a270.524,270.524,0,0,1,60.66,6.848,197.5,197.5,0,0,0-20.68,171.525,25.609,25.609,0,0,0,32.83,16.035,26.417,26.417,0,0,0,15.68-33.5,144,144,0,0,1-7.9-47.237c0-78.179,62.32-141.71,138.91-141.71s138.91,63.531,138.91,141.71c0,78.092-62.32,141.71-138.91,141.71a136.442,136.442,0,0,1-76.8-23.618,25.4,25.4,0,0,0-35.66,7.323,26.6,26.6,0,0,0,7.18,36.4,187.168,187.168,0,0,0,105.28,32.372c104.97,0,190.36-87.149,190.36-194.19,0-107.084-85.39-194.234-190.36-194.234a187.218,187.218,0,0,0-120.16,43.77,320.982,320.982,0,0,0-99.34-15.775c-180.61,0-327.549,149.9-327.549,334.168,0,1.083.063,2.123,0.069,3.206-143.4,8.018-278.037,48.407-387.7,116.185-38.515-39.176-92.646-61.667-149.133-61.667-112.53,0-204.073,87.106-204.073,194.19,0,75.926,45.8,143.964,117.455,175.859a379.27,379.27,0,0,0-7.7,76.013c0,135.855,72.354,262.965,203.728,357.875,128.685,93,299.338,144.22,480.512,144.22,132.845,0,261.615-27.82,372.4-80.52,109.11-51.92,195.42-124.98,249.57-211.48a26.582,26.582,0,0,0-7.83-36.27,25.475,25.475,0,0,0-35.52,7.97c-101.86,162.73-328.98,267.82-578.609,267.82-348.932,0-632.8-201.64-632.8-449.615,0-247.885,283.865-449.529,632.8-449.529s632.8,201.644,632.8,449.529a326.2,326.2,0,0,1-16.96,103.535c-4.57,13.69,2.61,28.64,16.07,33.28a25.605,25.605,0,0,0,32.64-16.34,378.542,378.542,0,0,0,12-196.488C1687.2,824.827,1732.99,756.789,1732.99,680.863ZM276.653,805.585C227.5,780.97,196.44,733.43,196.44,680.907c0-78.179,68.469-141.754,152.63-141.754,39.21,0,76.766,14.084,105.028,39C367.205,642.034,306.732,720.169,276.653,805.585Zm1324.677,0c-30.08-85.372-90.55-163.551-177.44-227.429,28.26-24.919,65.81-39,105.03-39,84.15,0,152.62,63.575,152.62,141.754C1681.54,733.43,1650.49,780.97,1601.33,805.585Zm-415.4-94.993c-67.13,0-121.75,55.731-121.75,124.2,0,68.515,54.62,124.246,121.75,124.246s121.76-55.731,121.76-124.246C1307.69,766.323,1253.07,710.592,1185.93,710.592Zm0,195.924c-38.76,0-70.31-32.2-70.31-71.722s31.54-71.722,70.31-71.722,70.32,32.2,70.32,71.722S1224.71,906.516,1185.93,906.516ZM692.042,710.592c-67.14,0-121.754,55.731-121.754,124.2,0,68.515,54.614,124.246,121.754,124.246S813.8,903.309,813.8,834.794C813.8,766.323,759.183,710.592,692.042,710.592Zm0,195.924c-38.765,0-70.311-32.2-70.311-71.722s31.54-71.722,70.311-71.722,70.312,32.2,70.312,71.722S730.814,906.516,692.042,906.516ZM1235.65,1096.63a25.486,25.486,0,0,0-35.15-9.57,514.894,514.894,0,0,1-549.185-16.47,25.38,25.38,0,0,0-35.638,7.41,26.564,26.564,0,0,0,7.3,36.36,565.5,565.5,0,0,0,603.282,18.16A26.588,26.588,0,0,0,1235.65,1096.63Z"/>
</svg>
