<svg xmlns="http://www.w3.org/2000/svg" xmlns:xlink="http://www.w3.org/1999/xlink" width="1599" height="1248" viewBox="0 0 1599 1248">
  <metadata><?xpacket begin="﻿" id="W5M0MpCehiHzreSzNTczkc9d"?>
<x:xmpmeta xmlns:x="adobe:ns:meta/" x:xmptk="Adobe XMP Core 5.6-c142 79.160924, 2017/07/13-01:06:39        ">
   <rdf:RDF xmlns:rdf="http://www.w3.org/1999/02/22-rdf-syntax-ns#">
      <rdf:Description rdf:about=""/>
   </rdf:RDF>
</x:xmpmeta>
                                                                                                    
                                                                                                    
                                                                                                    
                                                                                                    
                                                                                                    
                                                                                                    
                                                                                                    
                                                                                                    
                                                                                                    
                                                                                                    
                                                                                                    
                                                                                                    
                                                                                                    
                                                                                                    
                                                                                                    
                                                                                                    
                                                                                                    
                                                                                                    
                                                                                                    
                                                                                                    
                           
<?xpacket end="w"?></metadata>
<defs>
    <style>
      .cls-1 {
        fill-rule: evenodd;
        filter: url(#filter);
      }
    </style>
    <filter id="filter" x="100" y="75" width="1426" height="1109" filterUnits="userSpaceOnUse">
      <feFlood result="flood" flood-color="#fff"/>
      <feComposite result="composite" operator="in" in2="SourceGraphic"/>
      <feBlend result="blend" in2="SourceGraphic"/>
    </filter>
  </defs>
  <path class="cls-1" d="M1517.84,199.877c-7.26-6.942-19.37-9.242-29.05-6.942l-48.41,16.143a313.218,313.218,0,0,0,60.51-99.328c4.85-11.585,2.42-20.786-4.84-27.728a26.6,26.6,0,0,0-29.05-4.6c-67.77,27.728-125.86,50.814-174.26,64.658,0,2.3-2.43,0-4.85,0-38.73-20.786-133.12-67-200.9-67C915.144,77.421,777.184,216.021,777.184,384.691v9.243C525.458,347.72,387.5,278.378,237.43,128.194l-24.2-23.045-14.524,27.687C116.412,283.021,174.5,419.32,268.9,511.706c-43.561-6.9-72.61-20.744-99.235-41.571-9.683-6.9-21.784-9.2-33.884-2.259-9.683,4.6-14.525,18.444-12.107,30.029,33.89,108.571,118.6,196.357,210.576,249.471-43.567,0-79.869-4.642-116.177-27.728-9.682-4.6-24.207-4.6-33.884,2.342s-14.524,18.486-9.683,30.029C218.07,869.833,302.787,932.19,438.33,948.376c-70.192,39.271-162.168,71.6-304.97,73.944a34.446,34.446,0,0,0-31.466,20.78c-4.842,13.85,0,25.43,9.682,34.67C198.711,1144.73,392.339,1184,631.964,1184c426,0,774.536-362.681,774.536-808.593v-6.9c53.25-25.428,96.81-73.9,118.6-140.9C1527.51,218.321,1525.1,206.778,1517.84,199.877ZM1372.61,331.493l-14.52,4.642v39.272c0,420.484-326.76,762.423-726.132,762.423-220.259,0-367.9-34.67-447.772-71.6,167.01-11.58,263.827-62.4,338.86-117.854l60.509-41.614H510.94c-137.961,0-222.677-36.929-271.086-124.715,43.567,13.844,89.558,13.844,140.384,11.543,19.366-2.3,38.732-2.3,58.092-2.3l7.259-46.214C353.613,719.648,244.7,641.147,191.445,534.834c48.409,20.786,101.653,25.428,150.062,25.428h75.039l-60.509-41.613C305.205,484.02,155.144,361.563,227.753,185.992c154.909,145.5,302.552,212.543,568.8,258.756l29.048,4.6V384.691c0-143.284,116.177-261.056,261.4-263.4,55.67-2.3,147.65,46.172,174.27,60.057,14.52,6.943,29.05,9.285,43.57,4.642,36.3-11.584,79.87-27.728,128.28-46.172-21.78,34.588-50.83,66.958-89.55,96.987-9.68,6.942-12.11,20.827-7.26,32.37s19.36,16.144,31.46,11.543l94.4-30.028C1445.22,280.72,1418.6,315.35,1372.61,331.493Z"/>
</svg>
