<svg xmlns="http://www.w3.org/2000/svg" xmlns:xlink="http://www.w3.org/1999/xlink" width="1920" height="1494" viewBox="0 0 1920 1494">
  <metadata><?xpacket begin="﻿" id="W5M0MpCehiHzreSzNTczkc9d"?>
<x:xmpmeta xmlns:x="adobe:ns:meta/" x:xmptk="Adobe XMP Core 5.6-c142 79.160924, 2017/07/13-01:06:39        ">
   <rdf:RDF xmlns:rdf="http://www.w3.org/1999/02/22-rdf-syntax-ns#">
      <rdf:Description rdf:about=""/>
   </rdf:RDF>
</x:xmpmeta>
                                                                                                    
                                                                                                    
                                                                                                    
                                                                                                    
                                                                                                    
                                                                                                    
                                                                                                    
                                                                                                    
                                                                                                    
                                                                                                    
                                                                                                    
                                                                                                    
                                                                                                    
                                                                                                    
                                                                                                    
                                                                                                    
                                                                                                    
                                                                                                    
                                                                                                    
                                                                                                    
                           
<?xpacket end="w"?></metadata>
<defs>
    <style>
      .cls-1 {
        fill-rule: evenodd;
        filter: url(#filter);
      }
    </style>
    <filter id="filter" x="131" y="160.75" width="1646" height="1215.03" filterUnits="userSpaceOnUse">
      <feFlood result="flood" flood-color="#fff"/>
      <feComposite result="composite" operator="in" in2="SourceGraphic"/>
      <feBlend result="blend" in2="SourceGraphic"/>
    </filter>
  </defs>
  <path class="cls-1" d="M1760.5,432.786c0-5.208-16.48-121.469-68.69-176.939-63.21-66-131.9-73.923-167.63-76.583h-10.99c-222.58-15.849-555.077-18.509-560.572-18.509-2.744,0-337.993,2.66-557.829,23.773H386.55c-38.477,2.66-107.174,10.584-167.624,76.639-54.963,55.471-71.45,174.335-71.45,179.543,0,0-16.486,134.713-16.486,269.484V834.323c0,132.053,16.486,266.767,16.486,269.427,0,5.26,16.487,121.47,68.7,176.94,57.706,63.39,126.4,71.32,170.368,76.64,8.247,0,13.743,0,21.982,2.6,126.4,10.53,527.607,15.85,544.094,15.85,2.743,0,337.992,0,560.572-23.77h8.25c38.47-2.61,107.16-10.53,167.61-76.64,54.97-55.47,71.45-174.28,71.45-179.54,0,0,16.49-134.718,16.49-269.432V702.269C1776.99,570.159,1760.5,435.5,1760.5,432.786Zm-38.47,398.876c0,132.11-16.49,264.168-16.49,264.168-5.5,29.03-21.98,113.54-57.71,150.56-46.71,52.75-101.67,58.07-131.9,60.68h-8.24c-219.83,15.84-552.329,15.84-555.072,15.84s-414.938-5.2-535.847-18.45c-8.247,0-16.486-2.6-24.734-2.6-38.468-2.72-93.423-10.64-137.395-58.19-32.973-34.3-52.211-118.81-54.955-147.84,0-2.66-16.494-134.718-16.494-264.168V707.59c0-132.167,16.494-264.163,16.494-264.163,2.744-29.094,21.982-113.658,54.955-150.562C304.11,240,356.313,234.734,389.294,232.074h8.239c219.836-15.849,552.333-18.453,555.076-18.453s335.251,2.6,555.081,18.453h10.99c30.23,2.66,85.18,7.924,131.9,60.791,32.98,36.9,49.46,121.468,54.96,150.562,2.74,5.207,16.49,137.374,16.49,264.163V831.662h0Zm-425.92-60.677L774,477.728a25.643,25.643,0,0,0-27.477,0c-8.248,5.32-13.743,13.245-13.743,23.773V1074.66c0,10.58,5.5,18.51,13.743,23.77,5.5,2.66,8.239,2.66,13.734,2.66s8.248,0,13.743-2.66L1296.11,818.474c8.23-5.264,13.74-13.188,13.74-23.716C1309.85,784.116,1304.34,776.192,1296.11,770.985ZM787.737,1029.77V546.443L1227.41,794.758Z"/>
</svg>
