<svg id="Слой_1" data-name="Слой 1" xmlns="http://www.w3.org/2000/svg" viewBox="0 0 720.99 199.18"><defs><style>.cls-1{fill:#fff;}</style></defs><title>Logo@2x</title><text x="-36.56" y="-131.71"></text><path class="cls-1" d="M221.8,255a20.55,20.55,0,0,1-14.7-5.85A19.09,19.09,0,0,1,201,234.77a20.55,20.55,0,0,1,5.38-14.43,17.88,17.88,0,0,1,13.77-5.84,43,43,0,0,1,13.33,2.19l-.72,2.2a43.7,43.7,0,0,0-12.61-2,14.93,14.93,0,0,0-11.74,5.16,18.36,18.36,0,0,0-4.55,12.62,17.18,17.18,0,0,0,5.29,12.69,17.38,17.38,0,0,0,12.7,5.24,29,29,0,0,0,11.19-2l.82,1.86a17.64,17.64,0,0,1-5.46,1.87A34.08,34.08,0,0,1,221.8,255Z" transform="translate(-36.56 -131.71)"/><path class="cls-1" d="M266.07,254.38V215.32q5.21-.37,8.72-.38a14.32,14.32,0,0,1,9.21,2.88,9.78,9.78,0,0,1,3.62,8.14,11.59,11.59,0,0,1-2.08,6.64,18.66,18.66,0,0,1-4.66,4.88q2,2.81,5,6.67c2,2.58,3.28,4.19,3.86,4.85a12.19,12.19,0,0,0,7.57,4.06l-.05,1.76a13.68,13.68,0,0,1-5.43-1,13.29,13.29,0,0,1-4-2.93q-1.89-2-9.41-12.29c-3.58,0-6.84-.11-9.76-.33v16.13Zm10.8-18q2.42,0,5.16-3.19a10.94,10.94,0,0,0,2.74-7.37,7.55,7.55,0,0,0-2.82-6.37,12,12,0,0,0-7.49-2.16c-1.65,0-3.57.07-5.76.22v18.59C271.62,236.3,274.35,236.39,276.87,236.39Z" transform="translate(-36.56 -131.71)"/><path class="cls-1" d="M333.15,254.38h-2.63v-14l-14.76-25.18h3.18L330.35,235c.66,1.17,1.21,2.19,1.65,3.07a19.32,19.32,0,0,1,1.54-3l11.41-20h3l-14.81,25.29Z" transform="translate(-36.56 -131.71)"/><path class="cls-1" d="M378,254.38v-39c3-.3,6-.44,8.83-.44,3.84,0,6.92.89,9.25,2.69s3.48,4.49,3.48,8.09a10.58,10.58,0,0,1-4.75,8.88,18.54,18.54,0,0,1-11.32,3.49h-.61v-1.81h.39a15.77,15.77,0,0,0,9.43-2.86,8.73,8.73,0,0,0,4-7.43c0-3.05-.94-5.26-2.8-6.64a12.44,12.44,0,0,0-7.52-2c-1.64,0-3.56.07-5.76.22v36.86Z" transform="translate(-36.56 -131.71)"/><path class="cls-1" d="M439.07,217.46H425.8v-2.3H455v2.3H441.71v36.92h-2.64Z" transform="translate(-36.56 -131.71)"/><path class="cls-1" d="M483.29,240.77l-5.65,13.61h-2.8l16.51-39.5h1.54l16.56,39.5h-3l-5.65-13.61Zm8.66-21.5a3.6,3.6,0,0,0-.22.66c-.51,1.57-1,2.91-1.48,4l-6,14.6h15.69l-6-14.54A26.27,26.27,0,0,1,492,219.27Z" transform="translate(-36.56 -131.71)"/><path class="cls-1" d="M556.46,218.61a20.28,20.28,0,0,0-8-1.7q-8,0-8,5.93a7.43,7.43,0,0,0,1.81,4.8,20,20,0,0,0,4.39,4c1.72,1.15,3.43,2.33,5.15,3.53a18.46,18.46,0,0,1,4.39,4.34,9.18,9.18,0,0,1,1.81,5.48c0,3.33-1.12,5.85-3.34,7.55s-5.32,2.55-9.25,2.55a16.68,16.68,0,0,1-10.06-3l1.31-2a15.54,15.54,0,0,0,8.67,2.58c3.14,0,5.56-.63,7.24-1.89a6.41,6.41,0,0,0,2.52-5.46,7.31,7.31,0,0,0-1.81-4.69,21.11,21.11,0,0,0-4.38-4q-2.58-1.79-5.16-3.65a18.69,18.69,0,0,1-4.39-4.44,9.45,9.45,0,0,1-1.81-5.54,7.43,7.43,0,0,1,2.88-6.17,12.22,12.22,0,0,1,7.79-2.28,21.36,21.36,0,0,1,9.13,2Z" transform="translate(-36.56 -131.71)"/><path class="cls-1" d="M608.41,218.61a20.29,20.29,0,0,0-8-1.7q-8,0-8,5.93a7.47,7.47,0,0,0,1.8,4.8,20.18,20.18,0,0,0,4.39,4q2.58,1.72,5.16,3.53a18.46,18.46,0,0,1,4.39,4.34,9.25,9.25,0,0,1,1.81,5.48q0,5-3.35,7.55T597.41,255a16.73,16.73,0,0,1-10.07-3l1.32-2a15.52,15.52,0,0,0,8.67,2.58q4.71,0,7.24-1.89a6.41,6.41,0,0,0,2.52-5.46,7.31,7.31,0,0,0-1.81-4.69,21.17,21.17,0,0,0-4.39-4q-2.58-1.79-5.15-3.65a18.51,18.51,0,0,1-4.39-4.44,9.45,9.45,0,0,1-1.81-5.54,7.43,7.43,0,0,1,2.88-6.17,12.2,12.2,0,0,1,7.79-2.28,21.4,21.4,0,0,1,9.13,2Z" transform="translate(-36.56 -131.71)"/><path class="cls-1" d="M643.4,254.38V215.16H646v39.22Z" transform="translate(-36.56 -131.71)"/><path class="cls-1" d="M699.41,218.61a20.28,20.28,0,0,0-7.95-1.7q-8,0-8,5.93a7.43,7.43,0,0,0,1.81,4.8,20,20,0,0,0,4.39,4q2.57,1.72,5.15,3.53a18.46,18.46,0,0,1,4.39,4.34,9.18,9.18,0,0,1,1.81,5.48q0,5-3.35,7.55T688.41,255a16.68,16.68,0,0,1-10.06-3l1.31-2a15.52,15.52,0,0,0,8.67,2.58c3.14,0,5.56-.63,7.24-1.89a6.41,6.41,0,0,0,2.52-5.46,7.31,7.31,0,0,0-1.81-4.69,20.92,20.92,0,0,0-4.39-4c-1.72-1.19-3.43-2.41-5.15-3.65a18.69,18.69,0,0,1-4.39-4.44,9.45,9.45,0,0,1-1.81-5.54,7.43,7.43,0,0,1,2.88-6.17,12.22,12.22,0,0,1,7.79-2.28,21.36,21.36,0,0,1,9.13,2Z" transform="translate(-36.56 -131.71)"/><path class="cls-1" d="M741.65,217.46H728.37v-2.3h29.18v2.3H744.28v36.92h-2.63Z" transform="translate(-36.56 -131.71)"/><path class="cls-1" d="M202.65,277h-133l66.5-126.27Zm-95.86-22.42H165.5l-29.35-55.74Z" transform="translate(-36.56 -131.71)"/><path class="cls-1" d="M202.19,259.53A71.82,71.82,0,1,1,204.76,210h28.68a99.59,99.59,0,1,0-1.79,49.52Z" transform="translate(-36.56 -131.71)"/></svg>